<?xml version="1.0" encoding="UTF-8"?>
<svg xmlns="http://www.w3.org/2000/svg" xmlns:xlink="http://www.w3.org/1999/xlink" width="23pt" height="23pt" viewBox="0 0 23 23" version="1.1">
<g id="surface1">
<path style=" stroke:none;fill-rule:nonzero;fill:rgb(74.509804%,65.098039%,48.627451%);fill-opacity:1;" d="M 11.546875 22.277344 C 5.777344 22.277344 1.085938 17.4375 1.085938 11.492188 C 1.085938 5.546875 5.777344 0.707031 11.546875 0.707031 C 17.3125 0.707031 22.003906 5.546875 22.003906 11.492188 C 22.003906 17.4375 17.3125 22.277344 11.546875 22.277344 Z M 11.546875 1.535156 C 6.222656 1.535156 1.890625 6.003906 1.890625 11.492188 C 1.890625 16.980469 6.222656 21.445312 11.546875 21.445312 C 16.867188 21.445312 21.199219 16.980469 21.199219 11.492188 C 21.199219 6.003906 16.867188 1.535156 11.546875 1.535156 Z M 11.546875 1.535156 "/>
<path style=" stroke:none;fill-rule:nonzero;fill:rgb(74.509804%,65.098039%,48.627451%);fill-opacity:1;" d="M 12.5625 6.046875 C 12.582031 6.625 12.171875 7.085938 11.515625 7.085938 C 10.9375 7.085938 10.527344 6.625 10.527344 6.046875 C 10.527344 5.449219 10.957031 4.988281 11.554688 4.988281 C 12.171875 4.988281 12.5625 5.449219 12.5625 6.046875 Z M 10.734375 17.980469 L 10.734375 8.664062 L 12.375 8.664062 L 12.375 17.980469 C 12.375 17.980469 10.734375 17.980469 10.734375 17.980469 Z M 10.734375 17.980469 "/>
</g>
</svg>
