<?xml version="1.0" encoding="UTF-8"?>
<svg xmlns="http://www.w3.org/2000/svg" xmlns:xlink="http://www.w3.org/1999/xlink" width="33pt" height="23pt" viewBox="0 0 33 23" version="1.1">
<g id="surface1">
<path style=" stroke:none;fill-rule:nonzero;fill:rgb(0%,0%,0%);fill-opacity:1;" d="M 31.59375 0.957031 L 1.375 0.957031 C 0.613281 0.957031 0 1.386719 0 1.914062 C 0 2.445312 0.613281 2.871094 1.375 2.871094 L 31.59375 2.871094 C 32.351562 2.871094 32.96875 2.445312 32.96875 1.914062 C 32.96875 1.386719 32.351562 0.957031 31.59375 0.957031 Z M 31.59375 0.957031 "/>
<path style=" stroke:none;fill-rule:nonzero;fill:rgb(74.509804%,65.098039%,48.627451%);fill-opacity:1;" d="M 31.59375 0.957031 L 1.375 0.957031 C 0.613281 0.957031 0 1.386719 0 1.914062 C 0 2.445312 0.613281 2.871094 1.375 2.871094 L 31.59375 2.871094 C 32.351562 2.871094 32.96875 2.445312 32.96875 1.914062 C 32.96875 1.386719 32.351562 0.957031 31.59375 0.957031 Z M 31.59375 0.957031 "/>
<path style=" stroke:none;fill-rule:nonzero;fill:rgb(74.509804%,65.098039%,48.627451%);fill-opacity:1;" d="M 31.59375 10.53125 L 1.375 10.53125 C 0.613281 10.53125 0 10.960938 0 11.488281 C 0 12.015625 0.613281 12.445312 1.375 12.445312 L 31.59375 12.445312 C 32.351562 12.445312 32.96875 12.015625 32.96875 11.488281 C 32.96875 10.960938 32.351562 10.53125 31.59375 10.53125 Z M 31.59375 10.53125 "/>
<path style=" stroke:none;fill-rule:nonzero;fill:rgb(74.509804%,65.098039%,48.627451%);fill-opacity:1;" d="M 31.59375 20.105469 L 1.375 20.105469 C 0.613281 20.105469 0 20.535156 0 21.0625 C 0 21.589844 0.613281 22.019531 1.375 22.019531 L 31.59375 22.019531 C 32.351562 22.019531 32.96875 21.589844 32.96875 21.0625 C 32.96875 20.535156 32.351562 20.105469 31.59375 20.105469 Z M 31.59375 20.105469 "/>
</g>
</svg>
