<svg xmlns="http://www.w3.org/2000/svg" xmlns:xlink="http://www.w3.org/1999/xlink" version="1.1" style="enable-background:new 0 0 30.051 30.051;" xml:space="preserve" width="30.051" height="30.051"><rect id="backgroundrect" width="100%" height="100%" x="0" y="0" fill="none" stroke="none"/>
















<g class="currentLayer" style=""><title>Layer 1</title><g id="svg_1" class="selected" fill-opacity="1" fill="#ffffff">
	<path d="M19.982,14.438l-6.24-4.536c-0.229-0.166-0.533-0.191-0.784-0.062c-0.253,0.128-0.411,0.388-0.411,0.669v9.069   c0,0.284,0.158,0.543,0.411,0.671c0.107,0.054,0.224,0.081,0.342,0.081c0.154,0,0.31-0.049,0.442-0.146l6.24-4.532   c0.197-0.145,0.312-0.369,0.312-0.607C20.295,14.803,20.177,14.58,19.982,14.438z" id="svg_2" fill="#ffffff"/>
	<path d="M15.026,0.002C6.726,0.002,0,6.728,0,15.028c0,8.297,6.726,15.021,15.026,15.021c8.298,0,15.025-6.725,15.025-15.021   C30.052,6.728,23.324,0.002,15.026,0.002z M15.026,27.542c-6.912,0-12.516-5.601-12.516-12.514c0-6.91,5.604-12.518,12.516-12.518   c6.911,0,12.514,5.607,12.514,12.518C27.541,21.941,21.937,27.542,15.026,27.542z" id="svg_3" fill="#ffffff"/>
	<g id="svg_4" fill="#ffffff">
	</g>
	<g id="svg_5" fill="#ffffff">
	</g>
	<g id="svg_6" fill="#ffffff">
	</g>
	<g id="svg_7" fill="#ffffff">
	</g>
	<g id="svg_8" fill="#ffffff">
	</g>
	<g id="svg_9" fill="#ffffff">
	</g>
	<g id="svg_10" fill="#ffffff">
	</g>
	<g id="svg_11" fill="#ffffff">
	</g>
	<g id="svg_12" fill="#ffffff">
	</g>
	<g id="svg_13" fill="#ffffff">
	</g>
	<g id="svg_14" fill="#ffffff">
	</g>
	<g id="svg_15" fill="#ffffff">
	</g>
	<g id="svg_16" fill="#ffffff">
	</g>
	<g id="svg_17" fill="#ffffff">
	</g>
	<g id="svg_18" fill="#ffffff">
	</g>
</g><g id="svg_19">
</g><g id="svg_20">
</g><g id="svg_21">
</g><g id="svg_22">
</g><g id="svg_23">
</g><g id="svg_24">
</g><g id="svg_25">
</g><g id="svg_26">
</g><g id="svg_27">
</g><g id="svg_28">
</g><g id="svg_29">
</g><g id="svg_30">
</g><g id="svg_31">
</g><g id="svg_32">
</g><g id="svg_33">
</g></g></svg>