<?xml version="1.0" encoding="UTF-8"?>
<svg xmlns="http://www.w3.org/2000/svg" xmlns:xlink="http://www.w3.org/1999/xlink" width="31pt" height="31pt" viewBox="0 0 31 31" version="1.1">
<g id="surface1">
<path style=" stroke:none;fill-rule:nonzero;fill:rgb(74.509804%,65.098039%,48.627451%);fill-opacity:1;" d="M 24.582031 20.101562 C 22.789062 20.101562 21.191406 20.972656 20.199219 22.316406 L 11.644531 17.945312 C 11.789062 17.457031 11.867188 16.941406 11.867188 16.40625 C 11.867188 15.6875 11.726562 14.996094 11.46875 14.363281 L 20.433594 8.976562 C 21.433594 10.152344 22.921875 10.898438 24.582031 10.898438 C 27.585938 10.898438 30.03125 8.453125 30.03125 5.449219 C 30.03125 2.445312 27.585938 0 24.582031 0 C 21.578125 0 19.132812 2.445312 19.132812 5.449219 C 19.132812 6.144531 19.261719 6.808594 19.5 7.417969 L 10.515625 12.820312 C 9.515625 11.679688 8.050781 10.960938 6.417969 10.960938 C 3.414062 10.960938 0.96875 13.402344 0.96875 16.40625 C 0.96875 19.414062 3.414062 21.859375 6.417969 21.859375 C 8.242188 21.859375 9.859375 20.957031 10.847656 19.578125 L 19.378906 23.933594 C 19.21875 24.445312 19.132812 24.988281 19.132812 25.550781 C 19.132812 28.554688 21.578125 31 24.582031 31 C 27.585938 31 30.03125 28.554688 30.03125 25.550781 C 30.03125 22.546875 27.585938 20.101562 24.582031 20.101562 Z M 24.582031 1.816406 C 26.585938 1.816406 28.214844 3.445312 28.214844 5.449219 C 28.214844 7.453125 26.585938 9.082031 24.582031 9.082031 C 22.578125 9.082031 20.949219 7.453125 20.949219 5.449219 C 20.949219 3.445312 22.578125 1.816406 24.582031 1.816406 Z M 6.417969 20.039062 C 4.414062 20.039062 2.785156 18.410156 2.785156 16.40625 C 2.785156 14.40625 4.414062 12.773438 6.417969 12.773438 C 8.421875 12.773438 10.050781 14.40625 10.050781 16.40625 C 10.050781 18.410156 8.421875 20.039062 6.417969 20.039062 Z M 24.582031 29.183594 C 22.578125 29.183594 20.949219 27.554688 20.949219 25.550781 C 20.949219 23.546875 22.578125 21.917969 24.582031 21.917969 C 26.585938 21.917969 28.214844 23.546875 28.214844 25.550781 C 28.214844 27.554688 26.585938 29.183594 24.582031 29.183594 Z M 24.582031 29.183594 "/>
</g>
</svg>
